HIERARCHY
ROOT Hips
{
	OFFSET 51.845402 -3.711065 91.598099
	CHANNELS 6 Xposition Yposition Zposition Xrotation Yrotation Zrotation
	JOINT spine
	{
		OFFSET 0.000000 -0.393701 6.846367
		CHANNELS 3 Xrotation Yrotation Zrotation
		JOINT spine1
		{
			OFFSET 0.000000 -0.000001 9.496208
			CHANNELS 3 Xrotation Yrotation Zrotation
			JOINT spine2
			{
				OFFSET 0.000000 -0.000001 9.099091
				CHANNELS 3 Xrotation Yrotation Zrotation
				JOINT Neck
				{
					OFFSET 0.000000 -1.113784 23.361206
					CHANNELS 3 Xrotation Yrotation Zrotation
					JOINT Head
					{
						OFFSET 0.000000 -0.000001 7.058014
						CHANNELS 3 Xrotation Yrotation Zrotation
						End Site
						{
							OFFSET 0.000000 5.634187 17.084396
						}
					}
				}
				JOINT RightShoulder
				{
					OFFSET -3.831360 0.533489 9.826309
					CHANNELS 3 Xrotation Yrotation Zrotation
					JOINT RightArm
					{
						OFFSET 0.000000 -0.000002 12.888107
						CHANNELS 3 Xrotation Yrotation Zrotation
						JOINT RightArmRoll
						{
							OFFSET 0.000000 -0.000001 6.506165
							CHANNELS 3 Xrotation Yrotation Zrotation
							JOINT RightForeArm
							{
								OFFSET 0.000000 -0.000003 18.950104
								CHANNELS 3 Xrotation Yrotation Zrotation
								JOINT RightForeArmRoll
								{
									OFFSET 0.000000 -0.000001 7.300919
									CHANNELS 3 Xrotation Yrotation Zrotation
									JOINT RightHand
									{
										OFFSET 0.000000 -0.000002 14.651398
										CHANNELS 3 Xrotation Yrotation Zrotation
										End Site
										{
											OFFSET 0.000000 0.000000 0.100006
										}
									}
								}
							}
						}
					}
				}
				JOINT LeftShoulder
				{
					OFFSET 3.831360 0.533489 9.826309
					CHANNELS 3 Xrotation Yrotation Zrotation
					JOINT LeftArm
					{
						OFFSET 0.000000 -0.000002 12.888107
						CHANNELS 3 Xrotation Yrotation Zrotation
						JOINT LeftArmRoll
						{
							OFFSET 0.000000 -0.000001 6.506165
							CHANNELS 3 Xrotation Yrotation Zrotation
							JOINT LeftForeArm
							{
								OFFSET 0.000000 -0.000003 18.950104
								CHANNELS 3 Xrotation Yrotation Zrotation
								JOINT LeftForeArmRoll
								{
									OFFSET 0.000000 -0.000001 7.300934
									CHANNELS 3 Xrotation Yrotation Zrotation
									JOINT LeftHand
									{
										OFFSET 0.000000 -0.000002 14.651398
										CHANNELS 3 Xrotation Yrotation Zrotation
										End Site
										{
											OFFSET 0.000000 0.000000 0.100006
										}
									}
								}
							}
						}
					}
				}
			}
		}
	}
	JOINT RightUpLeg
	{
		OFFSET -6.068371 0.933477 -1.112778
		CHANNELS 3 Xrotation Yrotation Zrotation
		JOINT RightUpLegRoll
		{
			OFFSET 0.000000 -0.000003 17.179596
			CHANNELS 3 Xrotation Yrotation Zrotation
			JOINT RightLeg
			{
				OFFSET 0.000000 0.000004 -21.274300
				CHANNELS 3 Xrotation Yrotation Zrotation
				JOINT RightLegRoll
				{
					OFFSET 0.000000 -0.000004 21.343903
					CHANNELS 3 Xrotation Yrotation Zrotation
					JOINT RightFoot
					{
						OFFSET 0.000000 -0.000003 17.765198
						CHANNELS 3 Xrotation Yrotation Zrotation
						JOINT RightToeBase
						{
							OFFSET 0.000000 -0.000002 14.850807
							CHANNELS 3 Xrotation Yrotation Zrotation
							End Site
							{
								OFFSET 0.006294 0.829004 7.192139
							}
						}
					}
				}
			}
		}
	}
	JOINT LeftUpLeg
	{
		OFFSET 6.068371 0.933477 -1.112778
		CHANNELS 3 Xrotation Yrotation Zrotation
		JOINT LeftUpLegRoll
		{
			OFFSET 0.000000 -0.000003 17.179703
			CHANNELS 3 Xrotation Yrotation Zrotation
			JOINT LeftLeg
			{
				OFFSET 0.000000 -0.000003 21.274200
				CHANNELS 3 Xrotation Yrotation Zrotation
				JOINT LeftLegRoll
				{
					OFFSET 0.000000 -0.000004 21.541199
					CHANNELS 3 Xrotation Yrotation Zrotation
					JOINT LeftFoot
					{
						OFFSET 0.000000 -0.000003 17.567902
						CHANNELS 3 Xrotation Yrotation Zrotation
						JOINT LeftToeBase
						{
							OFFSET 0.000000 -0.000002 14.850800
							CHANNELS 3 Xrotation Yrotation Zrotation
							End Site
							{
								OFFSET -0.028210 0.829004 7.192123
							}
						}
					}
				}
			}
		}
	}
}
MOTION
Frames: 10
Frame Time: 0.041667
55.067799 -5.515930 91.528297 -2.193441 -0.718320 -4.795242 -1.930992 0.028570 -0.146064 0.139132 0.064926 -0.279840 1.784201 0.061467 -0.280523 26.932402 4.411213 -2.017771 -7.440313 -2.569293 -1.767194 18.907383 -72.485369 18.969348 -18.265743 -101.663766 1.029017 0.000002 -0.000002 0.000001 10.016535 -7.367260 -0.524345 0.000004 0.000007 -2.999991 -5.000225 -7.999032 0.000112 18.197606 70.734641 -18.563725 -31.430567 104.335128 8.272156 0.000000 0.000003 0.000004 4.330856 12.067362 -0.099539 0.000001 -0.000003 3.007150 -5.000223 7.998750 -0.000175 -0.869425 -173.646727 2.231503 179.999991 -0.000005 -1.093999 175.346570 -2.304387 -0.214520 0.000003 -0.000001 0.039708 69.002662 6.916554 2.067749 25.456957 -7.355614 -0.000000 3.912628 175.870623 -0.114358 -0.000005 -0.000005 -1.162700 -3.808355 1.693145 0.135816 -0.000001 0.000001 -0.034914 69.132204 -6.914436 -2.060663 25.456960 7.355613 0.000000 
55.067299 -5.509339 91.528290 -2.192091 -0.718413 -4.804738 -1.931662 0.030331 -0.146282 0.137929 0.068218 -0.281165 1.783001 0.064751 -0.281893 26.895115 4.440667 -2.014302 -7.404063 -2.574106 -1.763007 18.804911 -72.469987 18.862242 -18.330921 -101.672229 1.023036 0.000002 -0.000002 0.000000 10.001208 -7.320024 -0.531321 0.000006 0.000007 -2.999990 -5.000226 -7.999032 0.000112 18.146918 70.735338 -18.508650 -31.462921 104.357169 8.305163 -0.000000 0.000003 0.000003 4.326365 12.061446 -0.098889 0.000000 -0.000002 3.007150 -5.000221 7.998752 -0.000176 -0.869553 -173.647724 2.229804 179.999991 -0.000005 -1.093999 175.353714 -2.302423 -0.214072 0.000003 -0.000001 0.039707 69.000012 6.916548 2.067713 25.456955 -7.355614 -0.000000 3.912939 175.870623 -0.112599 -0.000005 -0.000005 -1.162700 -3.809121 1.690878 0.135817 -0.000001 0.000001 -0.034914 69.131999 -6.914460 -2.060581 25.456959 7.355613 0.000000 
55.069401 -5.508848 91.530991 -2.190481 -0.718841 -4.814274 -1.932349 0.032170 -0.146489 0.136672 0.071669 -0.282545 1.781742 0.068194 -0.283321 26.857810 4.469549 -2.010888 -7.367551 -2.578246 -1.758944 18.704552 -72.455405 18.757238 -18.397243 -101.680787 1.015547 0.000003 -0.000002 0.000001 9.985317 -7.273091 -0.538249 0.000005 0.000007 -2.999992 -5.000225 -7.999032 0.000111 18.094774 70.735345 -18.452092 -31.493326 104.380085 8.336040 -0.000000 0.000003 0.000003 4.321845 12.055232 -0.098216 0.000001 -0.000001 3.007149 -5.000222 7.998752 -0.000176 -0.870062 -173.647738 2.228267 179.999991 -0.000005 -1.094000 175.360818 -2.301438 -0.214701 0.000003 -0.000001 0.039707 68.997376 6.916542 2.067677 25.456957 -7.355615 -0.000001 3.912913 175.872604 -0.110341 -0.000005 -0.000005 -1.162700 -3.809956 1.688482 0.135817 -0.000002 0.000002 -0.034914 69.131780 -6.914450 -2.060591 25.456959 7.355613 0.000000 
55.061699 -5.513328 91.531700 -2.188702 -0.719504 -4.823837 -1.933070 0.034064 -0.146690 0.135379 0.075232 -0.283966 1.780452 0.071748 -0.284791 26.820389 4.498022 -2.007489 -7.330877 -2.581921 -1.754969 18.605714 -72.441362 18.653764 -18.462818 -101.690377 1.008545 0.000002 -0.000002 0.000001 9.969047 -7.226369 -0.545143 0.000005 0.000008 -2.999991 -5.000227 -7.999031 0.000110 18.041806 70.735106 -18.394722 -31.523768 104.403020 8.366948 0.000000 0.000003 0.000004 4.317306 12.048919 -0.097540 -0.000001 -0.000002 3.007150 -5.000218 7.998752 -0.000176 -0.870842 -173.647724 2.226861 179.999991 -0.000005 -1.094000 175.367962 -2.299474 -0.214254 0.000003 -0.000001 0.039707 68.994637 6.916531 2.067746 25.456957 -7.355615 -0.000001 3.912656 175.873601 -0.107898 -0.000005 -0.000004 -1.162700 -3.810832 1.685985 0.135818 -0.000002 0.000001 -0.034914 69.131568 -6.914440 -2.060603 25.456957 7.355613 0.000000 
55.057198 -5.509177 91.530701 -2.186804 -0.720303 -4.833425 -1.933804 0.035989 -0.146888 0.134065 0.078858 -0.285410 1.779131 0.075366 -0.286284 26.782869 4.526265 -2.004079 -7.294075 -2.585307 -1.751048 18.507939 -72.427702 18.551362 -18.530249 -101.699051 0.999473 0.000003 -0.000002 0.000002 9.952567 -7.179753 -0.552012 0.000007 0.000007 -2.999988 -5.000224 -7.999032 0.000112 17.988295 70.734593 -18.336807 -31.552154 104.426831 8.395726 0.000000 0.000003 0.000002 4.312766 12.042606 -0.096865 0.000002 -0.000002 3.007149 -5.000219 7.998753 -0.000177 -0.871778 -173.646741 2.225522 179.999991 -0.000004 -1.093999 175.375093 -2.297509 -0.213808 0.000003 -0.000001 0.039707 68.991898 6.916557 2.067722 25.456957 -7.355616 -0.000000 3.912261 175.875609 -0.105241 -0.000005 -0.000005 -1.162700 -3.811728 1.683449 0.135817 -0.000002 0.000002 -0.034914 69.131261 -6.914457 -2.060526 25.456959 7.355613 0.000000 
55.049000 -5.506647 91.532196 -2.184882 -0.721135 -4.843012 -1.934532 0.037922 -0.147084 0.132745 0.082501 -0.286857 1.777822 0.078999 -0.287782 26.745346 4.554454 -2.000646 -7.257271 -2.588635 -1.747134 18.410392 -72.414000 18.449190 -18.596086 -101.708702 0.992025 0.000003 -0.000002 0.000002 9.936026 -7.133177 -0.558856 0.000004 0.000007 -2.999990 -5.000226 -7.999033 0.000112 17.934612 70.733979 -18.278713 -31.582487 104.449794 8.426520 0.000001 0.000003 0.000004 4.308225 12.036192 -0.096184 -0.000000 -0.000002 3.007149 -5.000220 7.998752 -0.000176 -0.872744 -173.646741 2.224215 179.999991 -0.000005 -1.094000 175.382196 -2.296524 -0.213444 0.000003 -0.000001 0.039707 68.989145 6.916547 2.067793 25.456953 -7.355616 0.000000 3.911853 175.877603 -0.102551 -0.000005 -0.000004 -1.162700 -3.812633 1.680894 0.135818 -0.000002 0.000001 -0.034914 69.131049 -6.914446 -2.060537 25.456962 7.355613 0.000001 
55.053600 -5.506468 91.532898 -2.183011 -0.721901 -4.852588 -1.935260 0.039840 -0.147284 0.131437 0.086111 -0.288294 1.776512 0.082601 -0.289268 26.707827 4.582755 -1.997160 -7.220502 -2.592079 -1.743192 18.312695 -72.400169 18.346884 -18.663031 -101.717390 0.983538 0.000003 -0.000002 0.000000 9.919624 -7.086532 -0.565662 0.000005 0.000007 -2.999991 -5.000225 -7.999033 0.000112 17.881155 70.733432 -18.220858 -31.610706 104.473610 8.455116 -0.000000 0.000003 0.000004 4.303674 12.029780 -0.095501 -0.000001 -0.000002 3.007150 -5.000219 7.998749 -0.000176 -0.873634 -173.646741 2.222878 179.999991 -0.000005 -1.094000 175.389313 -2.294560 -0.213992 0.000003 -0.000001 0.039708 68.986488 6.916504 2.067851 25.456957 -7.355615 -0.000001 3.911494 175.879570 -0.099929 -0.000005 -0.000005 -1.162700 -3.813529 1.678358 0.135817 -0.000001 0.000001 -0.034914 69.130831 -6.914437 -2.060549 25.456957 7.355613 0.000001 
55.048401 -5.484990 91.531700 -2.181280 -0.722501 -4.862148 -1.935970 0.041718 -0.147488 0.130156 0.089642 -0.289702 1.775232 0.086124 -0.290725 26.670429 4.611328 -1.993595 -7.183861 -2.595870 -1.739176 18.214077 -72.385751 18.243676 -18.729183 -101.726044 0.976026 0.000003 -0.000002 0.000002 9.903504 -7.039727 -0.572457 0.000005 0.000007 -2.999989 -5.000226 -7.999033 0.000112 17.828457 70.733207 -18.163770 -31.640786 104.496567 8.485651 -0.000000 0.000003 0.000003 4.299144 12.023466 -0.094828 -0.000000 -0.000003 3.007150 -5.000222 7.998752 -0.000176 -0.874339 -173.645743 2.221425 179.999991 -0.000005 -1.094000 175.396458 -2.292594 -0.213547 0.000003 -0.000001 0.039706 68.983763 6.916531 2.067725 25.456955 -7.355612 -0.000001 3.911307 175.880595 -0.097557 -0.000005 -0.000004 -1.162699 -3.814395 1.675902 0.135818 -0.000001 0.000002 -0.034914 69.130612 -6.914424 -2.060460 25.456959 7.355613 0.000001 
55.039902 -5.485888 91.531090 -2.179753 -0.722831 -4.871672 -1.936661 0.043534 -0.147696 0.128914 0.093046 -0.291065 1.773993 0.089519 -0.292136 26.633151 4.640360 -1.989931 -7.147437 -2.600184 -1.735051 18.113991 -72.370506 18.139012 -18.794070 -101.734636 0.970154 0.000003 -0.000002 0.000001 9.887851 -6.992692 -0.579235 0.000007 0.000007 -2.999991 -5.000225 -7.999032 0.000112 17.776694 70.733296 -18.107608 -31.670631 104.519489 8.516027 -0.000000 0.000003 0.000004 4.294639 12.017451 -0.094177 0.000002 -0.000003 3.007150 -5.000221 7.998753 -0.000176 -0.874733 -173.646727 2.219845 179.999991 -0.000005 -1.094001 175.403588 -2.291609 -0.213181 0.000003 -0.000001 0.039707 68.981120 6.916527 2.067790 25.456957 -7.355613 -0.000000 3.911383 175.881579 -0.095478 -0.000005 -0.000005 -1.162700 -3.815210 1.673535 0.135817 -0.000002 0.000002 -0.034914 69.130319 -6.914480 -2.060390 25.456955 7.355613 0.000001 
55.043701 -5.503797 91.531792 -2.178505 -0.722793 -4.881155 -1.937310 0.045264 -0.147917 0.127732 0.096275 -0.292366 1.772802 0.092740 -0.293481 26.596004 4.670020 -1.986137 -7.111293 -2.605243 -1.730764 18.011993 -72.354257 18.032458 -18.855868 -101.744096 0.967777 0.000003 -0.000002 0.000003 9.872827 -6.945303 -0.585995 0.000006 0.000007 -2.999990 -5.000226 -7.999030 0.000112 17.726501 70.734040 -18.053034 -31.704246 104.540703 8.550226 -0.000001 0.000003 0.000002 4.290148 12.011533 -0.093532 -0.000001 -0.000003 3.007150 -5.000221 7.998752 -0.000176 -0.874711 -173.646741 2.218047 179.999991 -0.000005 -1.094000 175.410719 -2.289645 -0.212736 0.000003 -0.000001 0.039707 68.978483 6.916518 2.067753 25.456953 -7.355615 -0.000001 3.911812 175.882589 -0.093795 -0.000005 -0.000005 -1.162700 -3.815955 1.671319 0.135817 -0.000001 0.000002 -0.034915 69.130189 -6.914439 -2.060488 25.456957 7.355614 0.000001 
